<svg width="43" height="48" viewBox="0 0 43 48" fill="none" xmlns="http://www.w3.org/2000/svg">
<path d="M25.1306 48.0003C24.9081 48.0003 24.694 47.9176 24.5264 47.7688C24.3095 47.5731 24.1996 47.2893 24.2298 47C24.4221 45.0739 24.9219 43.2029 25.7128 41.4476C25.8309 41.1831 26.0698 40.9902 26.35 40.9323L41.9048 37.6146C42.1877 37.554 42.4815 37.6339 42.6985 37.8268C42.9155 38.0224 43.0253 38.3063 42.9951 38.5956C42.8029 40.5245 42.303 42.3927 41.5121 44.148C41.394 44.4125 41.1551 44.6054 40.875 44.6633L25.3201 47.981C25.2569 47.9948 25.1938 48.0003 25.1306 48.0003ZM27.1848 42.6132C26.7399 43.6823 26.4131 44.7928 26.2071 45.9309L40.0401 42.9797C40.485 41.9133 40.8118 40.8 41.015 39.662L27.1848 42.6132Z" fill="#86469C"/>
<path d="M0.905696 44.5168C0.683248 44.5168 0.469053 44.4342 0.30153 44.2854C0.0845752 44.0897 -0.0252802 43.8059 0.00492873 43.5166C0.197168 41.5905 0.696979 39.7194 1.4879 37.9614C1.60599 37.6969 1.84492 37.504 2.12504 37.4461L14.5354 34.8008V30.403L3.38009 32.781C3.09448 32.8416 2.80062 32.7617 2.58641 32.5688C2.36946 32.3732 2.25962 32.0894 2.28983 31.8C2.48207 29.8767 2.98188 28.0084 3.7728 26.2476C3.89089 25.9831 4.12982 25.7902 4.40994 25.7323L14.5354 23.5747V4.98861C14.5354 4.77919 14.6068 4.57528 14.7387 4.41271C16.1667 2.66569 17.8804 1.21904 19.8412 0.116821C20.1214 -0.043 20.4646 -0.0374892 20.742 0.125088C21.0194 0.287665 21.1896 0.58802 21.1896 0.910418V22.1584L24.2215 21.5108V7.419C24.2215 7.20958 24.2929 7.00567 24.4247 6.8431C25.8501 5.09608 27.5665 3.64943 29.5273 2.54721C29.8074 2.38739 30.1507 2.3929 30.4281 2.55548C30.7055 2.71805 30.8757 3.01841 30.8757 3.34081V20.0917L41.8965 17.7413C42.1766 17.6806 42.4732 17.7605 42.6902 17.9534C42.9071 18.1491 43.017 18.4329 42.9868 18.7222C42.7945 20.6456 42.2947 22.5138 41.5038 24.2774C41.3857 24.5419 41.1468 24.7348 40.8667 24.7927L30.8757 26.9227V30.031L41.8965 27.6777C42.1794 27.6171 42.4732 27.697 42.6902 27.8899C42.9071 28.0856 43.017 28.3694 42.9868 28.6587C42.7945 30.5848 42.2947 32.4558 41.5038 34.2111C41.3857 34.4757 41.1468 34.6685 40.8667 34.7264L25.3118 38.0441C25.0427 38.0992 24.7653 38.0331 24.5538 37.8622C24.3396 37.6886 24.2188 37.4296 24.2188 37.154V28.3363L21.1869 28.9839V33.7592C21.1869 34.4288 20.9892 35.0764 20.6184 35.6275L18.1001 39.375C17.3201 40.513 16.1585 41.2901 14.8266 41.5684L1.08971 44.4975C1.02654 44.5113 0.963379 44.5168 0.900215 44.5168H0.905696ZM2.95717 39.1298C2.51227 40.1989 2.18547 41.3094 1.98225 42.4474L14.4585 39.7883C15.3346 39.6065 16.0953 39.0967 16.6061 38.3527L19.1217 34.6107C19.292 34.3599 19.3826 34.0651 19.3826 33.7592V28.2454C19.3826 27.8155 19.6819 27.4435 20.0994 27.3553L24.9465 26.322C25.2157 26.2641 25.4931 26.333 25.7045 26.5039C25.9187 26.6775 26.0396 26.9365 26.0396 27.212V36.0298L40.04 33.0428C40.4849 31.9764 40.8117 30.8659 41.0177 29.7251L30.1672 32.0425C29.8981 32.0976 29.6207 32.0315 29.4092 31.8606C29.195 31.687 29.0742 31.428 29.0742 31.1525V26.1815C29.0742 25.7516 29.3735 25.3796 29.791 25.2914L40.0428 23.1063C40.4877 22.0371 40.8145 20.9239 41.0205 19.7886L30.17 22.1005C29.9008 22.1556 29.6234 22.0895 29.412 21.9187C29.1978 21.7451 29.0769 21.486 29.0769 21.2105V4.98311C27.9537 5.77119 26.9376 6.69705 26.0451 7.74967V22.2466C26.0451 22.6764 25.7457 23.0484 25.3283 23.1366L20.4811 24.1699C20.212 24.225 19.9346 24.1589 19.7231 23.9881C19.5089 23.8145 19.3881 23.5554 19.3881 23.2799V2.54996C18.2649 3.33529 17.2515 4.26391 16.3562 5.31652V24.3132C16.3562 24.7431 16.0569 25.1151 15.6394 25.2033L5.25306 27.416C4.80817 28.4851 4.48134 29.5956 4.27537 30.7336L15.2605 28.3914C15.5296 28.3363 15.807 28.4024 16.0184 28.5733C16.2326 28.7469 16.3535 29.0059 16.3535 29.2815V35.5393C16.3535 35.9692 16.0541 36.3411 15.6367 36.4293L2.9654 39.1298H2.95717Z" fill="#86469C"/>
</svg>
